<svg width="158" height="18" viewBox="0 0 158 18" fill="none" xmlns="http://www.w3.org/2000/svg">
<mask id="mask0_209_374" style="mask-type:luminance" maskUnits="userSpaceOnUse" x="0" y="0" width="27" height="18">
<path d="M26.5714 0H0V18H26.5714V0Z" fill="white"/>
</mask>
<g mask="url(#mask0_209_374)">
<path d="M10.0624 0H16.3966L19.2345 6.826L13.335 18L7.29688 6.998L10.0624 0Z" fill="url(#paint0_linear_209_374)"/>
<path d="M10.0625 0L13.2658 6.804L16.3967 0H10.0625Z" fill="#FFEEA6"/>
<path d="M12.3187 18L5.4963 6.995L8.9075 0H5.4963L0 5.452L12.3187 18Z" fill="url(#paint1_linear_209_374)"/>
<path d="M5.4963 6.99493L0 5.45093L12.3187 17.9999L5.4963 6.99493Z" fill="url(#paint2_linear_209_374)"/>
<path d="M14.2539 18L21.0766 6.995L17.6651 0H21.0766L26.5726 5.452L14.2539 18Z" fill="url(#paint3_linear_209_374)"/>
<path d="M16.3997 2.00488L18.3589 6.85489L15.4453 11.9339L16.9509 6.91189L16.3997 2.00488Z" fill="#FFEEA6"/>
<path d="M9.10156 8.37305L12.6861 15.406L12.1034 11.47L9.10156 8.37305Z" fill="#FFEEA6"/>
<path d="M3.23199 3.71094L1.05859 5.74694L5.3801 9.89394L2.79729 6.13594L3.23199 3.71094Z" fill="#FFEEA6"/>
<path d="M20.082 0.820961L21.071 0.782959L25.414 4.89096L20.082 0.820961Z" fill="#FFEEA6"/>
</g>
<path d="M33.6483 15.1351C33.2763 15.1351 32.8843 15.0621 32.4723 14.9181C32.0613 14.7731 31.6693 14.5421 31.2963 14.2251C31.0293 13.9701 30.8403 13.6921 30.7293 13.3911C30.6233 13.0861 30.5703 12.7881 30.5703 12.4991C30.5703 11.9931 30.6963 11.5931 30.9463 11.2981C31.1963 10.9981 31.5323 10.8471 31.9553 10.8471C32.1553 10.8471 32.3223 10.8861 32.4553 10.9641C32.5893 11.0371 32.6563 11.1121 32.6563 11.1891L32.2643 13.9841C32.4253 14.1001 32.6173 14.1981 32.8393 14.2751C33.0623 14.3531 33.3063 14.3921 33.5733 14.3921C34.1623 14.3921 34.6243 14.1671 34.9583 13.7171C35.2913 13.2611 35.4583 12.5211 35.4583 11.4981L35.4663 4.59207C35.4663 4.35307 35.4053 4.18107 35.2833 4.07507C35.1663 3.96407 35.0163 3.89107 34.8333 3.85807C34.6493 3.81907 34.4543 3.79407 34.2493 3.78307C34.1323 3.77207 34.0513 3.75007 34.0073 3.71607C33.9683 3.67707 33.9483 3.59707 33.9483 3.47407C33.9483 3.41307 33.9713 3.32707 34.0153 3.21607C34.0653 3.10507 34.1373 3.04907 34.2323 3.04907H38.4863C38.5803 3.04907 38.6503 3.10507 38.6943 3.21607C38.7443 3.32707 38.7693 3.41307 38.7693 3.47407C38.7693 3.66307 38.6783 3.76607 38.4943 3.78307C38.2163 3.80507 37.9603 3.85507 37.7273 3.93307C37.4933 4.00507 37.3763 4.13307 37.3763 4.31707V11.2231C37.3763 12.0401 37.2493 12.7051 36.9933 13.2161C36.7433 13.7281 36.4203 14.1231 36.0253 14.4011C35.6363 14.6791 35.2303 14.8701 34.8073 14.9761C34.3853 15.0821 33.9983 15.1351 33.6483 15.1351Z" fill="url(#paint4_linear_209_374)"/>
<path d="M39.3885 14.884C39.3005 14.884 39.2305 14.843 39.1805 14.759C39.1305 14.67 39.1055 14.57 39.1055 14.459C39.1055 14.331 39.1275 14.25 39.1725 14.217C39.2115 14.184 39.2885 14.161 39.4055 14.15C39.5445 14.134 39.6945 14.125 39.8565 14.125C40.0225 14.12 40.1785 14.078 40.3235 14C40.4735 13.917 40.5925 13.753 40.6815 13.508L44.5355 2.86499H45.9865L49.7485 13.508C49.8375 13.753 49.9535 13.917 50.0985 14C50.2485 14.078 50.4065 14.12 50.5735 14.125C50.7405 14.125 50.8905 14.134 51.0245 14.15C51.1405 14.161 51.2185 14.184 51.2575 14.217C51.3025 14.25 51.3245 14.331 51.3245 14.459C51.3245 14.52 51.2995 14.606 51.2495 14.718C51.2045 14.829 51.1355 14.884 51.0405 14.884H46.6705C46.5755 14.884 46.5035 14.829 46.4535 14.718C46.4095 14.606 46.3865 14.52 46.3865 14.459C46.3865 14.275 46.4785 14.173 46.6625 14.15C46.9955 14.134 47.2655 14.12 47.4715 14.109C47.6825 14.098 47.7885 14.028 47.7885 13.9C47.7885 13.861 47.7795 13.822 47.7635 13.783L46.6285 10.447L47.1205 10.789H42.3835L42.8675 10.43L41.7245 13.783C41.7135 13.811 41.7075 13.845 41.7075 13.883C41.7075 14.022 41.8245 14.098 42.0585 14.109C42.2975 14.114 42.5865 14.128 42.9255 14.15C43.1085 14.173 43.2005 14.275 43.2005 14.459C43.2005 14.52 43.1755 14.606 43.1255 14.718C43.0815 14.829 43.0115 14.884 42.9175 14.884H39.3885ZM42.8835 10.38L42.6505 10.072H46.8625L46.6115 10.38L44.8435 4.97599L42.8835 10.38Z" fill="url(#paint5_linear_209_374)"/>
<path d="M55.8198 15.0341L52.5328 4.50007C52.4438 4.25607 52.3298 4.08907 52.1908 4.00007C52.0518 3.90507 51.9018 3.85007 51.7408 3.83307C51.5848 3.81607 51.4268 3.80007 51.2658 3.78307C51.1488 3.77207 51.0708 3.75007 51.0318 3.71607C50.9878 3.67707 50.9648 3.59707 50.9648 3.47407C50.9648 3.41307 50.9898 3.32707 51.0398 3.21607C51.0898 3.10507 51.1598 3.04907 51.2488 3.04907H55.7608C55.8558 3.04907 55.9248 3.10507 55.9698 3.21607C56.0198 3.32707 56.0448 3.41307 56.0448 3.47407C56.0448 3.65807 55.9528 3.76107 55.7698 3.78307C55.3968 3.80007 55.0828 3.82507 54.8268 3.85807C54.5768 3.88607 54.4518 3.97207 54.4518 4.11707C54.4518 4.14407 54.4598 4.18607 54.4768 4.24207L56.8368 12.2901L59.6308 3.23207H60.6318L63.6428 12.2741L65.9198 4.23307C65.9308 4.20607 65.9368 4.17207 65.9368 4.13307C65.9368 4.02807 65.8668 3.95307 65.7278 3.90807C65.5948 3.86407 65.4168 3.83607 65.1938 3.82507C64.9718 3.80807 64.7268 3.79407 64.4598 3.78307C64.2768 3.76107 64.1848 3.65807 64.1848 3.47407C64.1848 3.41307 64.2068 3.32707 64.2518 3.21607C64.3018 3.10507 64.3738 3.04907 64.4688 3.04907H68.2388C68.3328 3.04907 68.4028 3.10507 68.4468 3.21607C68.4968 3.32707 68.5218 3.41307 68.5218 3.47407C68.5218 3.59707 68.4998 3.67707 68.4558 3.71607C68.4168 3.75007 68.3388 3.77207 68.2218 3.78307C68.0388 3.79407 67.8578 3.81107 67.6798 3.83307C67.5078 3.85507 67.3518 3.91607 67.2128 4.01607C67.0788 4.11707 66.9708 4.29207 66.8878 4.54207L63.6598 15.0341H62.6338L59.5898 6.25207L56.8448 15.0341H55.8198Z" fill="url(#paint6_linear_209_374)"/>
<path d="M69.3629 14.8841C69.2679 14.8841 69.1959 14.8291 69.1459 14.7181C69.1009 14.6061 69.0789 14.5201 69.0789 14.4591C69.0789 14.2701 69.1709 14.1671 69.3539 14.1501C69.6209 14.1281 69.8739 14.0811 70.1129 14.0091C70.3579 13.9311 70.4799 13.8001 70.4799 13.6171L70.4889 4.59207C70.4889 4.35307 70.4249 4.18107 70.2969 4.07507C70.1689 3.96907 70.0129 3.90007 69.8299 3.86607C69.6519 3.82707 69.4769 3.80007 69.3039 3.78307C69.1879 3.77207 69.1069 3.75007 69.0629 3.71607C69.0239 3.67707 69.0039 3.59707 69.0039 3.47407C69.0039 3.41307 69.0259 3.32707 69.0709 3.21607C69.1209 3.10507 69.1929 3.04907 69.2879 3.04907H73.5999C73.6939 3.04907 73.7639 3.10507 73.8079 3.21607C73.8579 3.32707 73.8829 3.41307 73.8829 3.47407C73.8829 3.66307 73.7919 3.76607 73.6079 3.78307C73.3359 3.80507 73.0659 3.85507 72.7989 3.93307C72.5319 4.00507 72.3989 4.13307 72.3989 4.31707L72.3899 13.3411C72.3899 13.5801 72.4599 13.7531 72.5989 13.8581C72.7439 13.9641 72.9129 14.0341 73.1079 14.0671C73.3079 14.1001 73.4909 14.1281 73.6579 14.1501C73.7749 14.1611 73.8529 14.1841 73.8919 14.2171C73.9359 14.2501 73.9579 14.3311 73.9579 14.4591C73.9579 14.5201 73.9329 14.6061 73.8829 14.7181C73.8389 14.8291 73.7689 14.8841 73.6749 14.8841H69.3629ZM77.0279 14.8841C76.9329 14.8841 76.8609 14.8291 76.8109 14.7181C76.7659 14.6061 76.7439 14.5201 76.7439 14.4591C76.7439 14.2701 76.8359 14.1671 77.0189 14.1501C77.2919 14.1281 77.5619 14.0811 77.8289 14.0091C78.1009 13.9311 78.2369 13.8001 78.2369 13.6171V4.59207C78.2369 4.35307 78.1649 4.18107 78.0199 4.07507C77.8809 3.96907 77.7149 3.90007 77.5199 3.86607C77.3249 3.82707 77.1419 3.80007 76.9689 3.78307C76.8529 3.77207 76.7719 3.75007 76.7279 3.71607C76.6889 3.67707 76.6689 3.59707 76.6689 3.47407C76.6689 3.41307 76.6909 3.32707 76.7359 3.21607C76.7859 3.10507 76.8579 3.04907 76.9529 3.04907H81.3479C81.4429 3.04907 81.5119 3.10507 81.5569 3.21607C81.6069 3.32707 81.6319 3.41307 81.6319 3.47407C81.6319 3.66307 81.5399 3.76607 81.3569 3.78307C81.0899 3.80507 80.8199 3.85507 80.5479 3.93307C80.2809 4.00507 80.1469 4.13307 80.1469 4.31707V13.3411C80.1469 13.5801 80.2169 13.7531 80.3559 13.8581C80.4949 13.9641 80.6619 14.0341 80.8559 14.0671C81.0559 14.1001 81.2399 14.1281 81.4069 14.1501C81.5229 14.1611 81.6009 14.1841 81.6399 14.2171C81.6849 14.2501 81.7069 14.3311 81.7069 14.4591C81.7069 14.5201 81.6819 14.6061 81.6319 14.7181C81.5869 14.8291 81.5179 14.8841 81.4229 14.8841H77.0279ZM71.9729 9.13807V8.22007H78.6629V9.13807H71.9729Z" fill="url(#paint7_linear_209_374)"/>
<path d="M82.5252 14.884C82.4362 14.884 82.3672 14.843 82.3172 14.759C82.2672 14.67 82.2422 14.57 82.2422 14.459C82.2422 14.331 82.2642 14.25 82.3082 14.217C82.3472 14.184 82.4252 14.161 82.5422 14.15C82.6812 14.134 82.8312 14.125 82.9922 14.125C83.1592 14.12 83.3152 14.078 83.4592 14C83.6102 13.917 83.7292 13.753 83.8182 13.508L87.6712 2.86499H89.1232L92.8842 13.508C92.9732 13.753 93.0902 13.917 93.2352 14C93.3852 14.078 93.5432 14.12 93.7102 14.125C93.8772 14.125 94.0272 14.134 94.1602 14.15C94.2772 14.161 94.3552 14.184 94.3942 14.217C94.4392 14.25 94.4612 14.331 94.4612 14.459C94.4612 14.52 94.4362 14.606 94.3862 14.718C94.3412 14.829 94.2722 14.884 94.1772 14.884H89.8072C89.7122 14.884 89.6402 14.829 89.5902 14.718C89.5452 14.606 89.5232 14.52 89.5232 14.459C89.5232 14.275 89.6152 14.173 89.7982 14.15C90.1322 14.134 90.4022 14.12 90.6072 14.109C90.8192 14.098 90.9242 14.028 90.9242 13.9C90.9242 13.861 90.9162 13.822 90.8992 13.783L89.7652 10.447L90.2572 10.789H85.5202L86.0032 10.43L84.8612 13.783C84.8502 13.811 84.8442 13.845 84.8442 13.883C84.8442 14.022 84.9612 14.098 85.1942 14.109C85.4332 14.114 85.7232 14.128 86.0622 14.15C86.2452 14.173 86.3372 14.275 86.3372 14.459C86.3372 14.52 86.3122 14.606 86.2622 14.718C86.2172 14.829 86.1482 14.884 86.0532 14.884H82.5252ZM86.0202 10.38L85.7862 10.072H89.9992L89.7482 10.38L87.9802 4.97599L86.0202 10.38Z" fill="url(#paint8_linear_209_374)"/>
<path d="M95.2959 14.8839C95.2009 14.8839 95.1289 14.8289 95.0789 14.7179C95.0339 14.6059 95.0119 14.5199 95.0119 14.4589C95.0119 14.2749 95.1039 14.1729 95.2869 14.1499C95.5539 14.1279 95.8189 14.0809 96.0799 14.0089C96.3469 13.9309 96.4799 13.7999 96.4799 13.6169L96.4889 4.59195C96.4889 4.35295 96.4249 4.18094 96.2969 4.07494C96.1689 3.96894 96.0129 3.89994 95.8299 3.86594C95.6519 3.82694 95.4769 3.79994 95.3039 3.78294C95.1869 3.77194 95.1069 3.74995 95.0619 3.71595C95.0229 3.67695 95.0039 3.59695 95.0039 3.47395C95.0039 3.41295 95.0259 3.32695 95.0709 3.21595C95.1209 3.10495 95.1929 3.04895 95.2869 3.04895C95.6209 3.04895 95.9049 3.04895 96.1379 3.04895C96.3769 3.04295 96.6139 3.04095 96.8469 3.04095C97.2919 3.04095 97.6649 3.03495 97.9649 3.02395C98.2649 3.01295 98.5649 3.00194 98.8659 2.99094C99.1659 2.97394 99.5359 2.96795 99.9749 2.97395C100.803 2.97895 101.543 3.08495 102.194 3.29095C102.844 3.49695 103.356 3.82995 103.728 4.29195C104.106 4.74795 104.295 5.35895 104.295 6.12695C104.295 6.72195 104.187 7.23594 103.97 7.66994C103.759 8.09794 103.447 8.45595 103.036 8.74595C102.624 9.02895 102.127 9.24895 101.543 9.40495C102.093 9.45995 102.524 9.61295 102.836 9.86295C103.153 10.1129 103.403 10.4249 103.586 10.7969C103.77 11.1639 103.94 11.5559 104.095 11.9729C104.251 12.3849 104.448 12.7829 104.687 13.1659C104.876 13.5279 105.079 13.7749 105.296 13.9079C105.513 14.0419 105.724 14.1199 105.93 14.1419C106.13 14.1639 106.23 14.2839 106.23 14.5009C106.23 14.5619 106.205 14.6419 106.155 14.7429C106.111 14.8369 106.041 14.8839 105.947 14.8839H103.611C103.35 14.8839 103.128 14.7589 102.944 14.5089C102.761 14.2589 102.597 13.9359 102.452 13.5409C102.308 13.1409 102.16 12.7209 102.01 12.2819C101.865 11.8369 101.696 11.4169 101.501 11.0229C101.307 10.6219 101.07 10.2969 100.792 10.0469C100.514 9.79694 100.172 9.67094 99.7659 9.67094H98.3739V13.341C98.3739 13.58 98.4509 13.7559 98.6069 13.8669C98.7629 13.9719 98.9489 14.0419 99.1659 14.0749C99.3879 14.1089 99.5999 14.1339 99.7999 14.1499C99.9169 14.1609 99.9939 14.1839 100.033 14.2169C100.078 14.2499 100.1 14.3309 100.1 14.4589C100.1 14.5199 100.075 14.6059 100.025 14.7179C99.9799 14.8289 99.9109 14.8839 99.8159 14.8839H95.2959ZM98.3819 8.95395H99.7409C100.203 8.95395 100.625 8.88195 101.009 8.73695C101.398 8.58695 101.71 8.32595 101.943 7.95295C102.177 7.58095 102.294 7.05795 102.294 6.38495C102.294 5.72895 102.18 5.21195 101.952 4.83395C101.724 4.44995 101.404 4.17795 100.992 4.01595C100.587 3.85495 100.117 3.77495 99.5829 3.77495H98.3819V8.95395Z" fill="url(#paint9_linear_209_374)"/>
<path d="M106.561 14.884C106.472 14.884 106.403 14.843 106.353 14.759C106.302 14.67 106.277 14.57 106.277 14.459C106.277 14.331 106.3 14.25 106.344 14.217C106.383 14.184 106.461 14.161 106.578 14.15C106.717 14.134 106.867 14.125 107.028 14.125C107.195 14.12 107.351 14.078 107.495 14C107.645 13.917 107.765 13.753 107.854 13.508L111.707 2.86499H113.158L116.92 13.508C117.009 13.753 117.126 13.917 117.27 14C117.421 14.078 117.579 14.12 117.746 14.125C117.913 14.125 118.063 14.134 118.196 14.15C118.313 14.161 118.391 14.184 118.43 14.217C118.474 14.25 118.496 14.331 118.496 14.459C118.496 14.52 118.471 14.606 118.421 14.718C118.377 14.829 118.307 14.884 118.213 14.884H113.842C113.748 14.884 113.676 14.829 113.626 14.718C113.581 14.606 113.559 14.52 113.559 14.459C113.559 14.275 113.651 14.173 113.834 14.15C114.168 14.134 114.437 14.12 114.643 14.109C114.854 14.098 114.96 14.028 114.96 13.9C114.96 13.861 114.952 13.822 114.935 13.783L113.801 10.447L114.293 10.789H109.555L110.039 10.43L108.896 13.783C108.885 13.811 108.88 13.845 108.88 13.883C108.88 14.022 108.996 14.098 109.23 14.109C109.469 14.114 109.758 14.128 110.097 14.15C110.281 14.173 110.373 14.275 110.373 14.459C110.373 14.52 110.348 14.606 110.298 14.718C110.253 14.829 110.184 14.884 110.089 14.884H106.561ZM110.056 10.38L109.822 10.072H114.034L113.784 10.38L112.016 4.97599L110.056 10.38Z" fill="url(#paint10_linear_209_374)"/>
<path d="M119.336 8.59104C119.336 8.18304 119.482 7.83704 119.775 7.55104C120.074 7.25904 120.437 7.11304 120.865 7.11304C121.293 7.11304 121.657 7.25904 121.956 7.55104C122.255 7.83704 122.405 8.18304 122.405 8.59104C122.405 8.99904 122.255 9.35904 121.956 9.67104C121.657 9.98404 121.293 10.14 120.865 10.14C120.437 10.14 120.074 9.98404 119.775 9.67104C119.482 9.35904 119.336 8.99904 119.336 8.59104Z" fill="url(#paint11_linear_209_374)"/>
<path d="M124.996 14.8841C124.901 14.8841 124.829 14.8291 124.779 14.7181C124.735 14.6061 124.712 14.5201 124.712 14.4591C124.712 14.2751 124.804 14.1731 124.988 14.1501C125.21 14.1341 125.432 14.1091 125.655 14.0751C125.877 14.0361 126.063 13.9811 126.214 13.9081C126.369 13.8361 126.447 13.7391 126.447 13.6171L126.455 4.59207C126.455 4.35307 126.369 4.18107 126.197 4.07507C126.03 3.96407 125.83 3.89107 125.596 3.85807C125.363 3.81907 125.143 3.79407 124.937 3.78307C124.821 3.77207 124.74 3.75007 124.696 3.71607C124.657 3.67707 124.637 3.59707 124.637 3.47407C124.637 3.41307 124.659 3.32707 124.704 3.21607C124.754 3.10507 124.826 3.04907 124.921 3.04907H130.117C130.845 3.04907 131.518 3.13007 132.135 3.29107C132.753 3.44707 133.25 3.71607 133.628 4.10007C134.007 4.48407 134.196 5.01507 134.196 5.69307C134.196 6.26007 134.065 6.74107 133.804 7.13607C133.542 7.53107 133.203 7.83907 132.786 8.06207C132.369 8.28407 131.924 8.42007 131.451 8.47007L131.477 8.41207C131.871 8.42907 132.269 8.49306 132.669 8.60406C133.075 8.71506 133.448 8.88707 133.787 9.12107C134.132 9.34907 134.407 9.64907 134.613 10.0221C134.818 10.3941 134.921 10.8561 134.921 11.4061C134.921 12.0071 134.799 12.5271 134.554 12.9661C134.31 13.4051 133.976 13.7671 133.553 14.0501C133.136 14.3341 132.666 14.5451 132.144 14.6841C131.621 14.8181 131.079 14.8841 130.517 14.8841H124.996ZM128.357 8.11207H129.633C130.067 8.11207 130.478 8.04207 130.868 7.90307C131.262 7.75907 131.585 7.52207 131.835 7.19407C132.085 6.86607 132.211 6.41907 132.211 5.85107C132.211 5.09007 131.98 4.55307 131.518 4.24207C131.057 3.93007 130.473 3.77507 129.767 3.77507H128.357V8.11207ZM129.875 14.0341C130.164 14.0341 130.478 14.0031 130.818 13.9421C131.157 13.8811 131.479 13.7611 131.785 13.5831C132.097 13.4001 132.35 13.1331 132.544 12.7831C132.744 12.4271 132.844 11.9601 132.844 11.3811C132.844 10.7471 132.728 10.2611 132.494 9.92207C132.261 9.58207 131.963 9.34307 131.602 9.20407C131.246 9.06007 130.873 8.97607 130.484 8.95407C130.095 8.92607 129.75 8.91207 129.45 8.91207H128.357V13.7251C128.357 13.7251 128.374 13.7531 128.407 13.8081C128.441 13.8581 128.563 13.9081 128.774 13.9591C128.985 14.0091 129.352 14.0341 129.875 14.0341Z" fill="url(#paint12_linear_209_374)"/>
<path d="M136.489 14.459C136.489 14.275 136.581 14.173 136.764 14.15C137.031 14.128 137.301 14.081 137.574 14.009C137.846 13.931 137.982 13.8 137.982 13.617V4.59202C137.982 4.35302 137.91 4.18101 137.765 4.07501C137.626 3.96901 137.46 3.90001 137.265 3.86601C137.07 3.82701 136.887 3.80001 136.714 3.78301C136.598 3.77201 136.517 3.75002 136.473 3.71602C136.434 3.67702 136.414 3.59701 136.414 3.47401C136.414 3.41301 136.436 3.32702 136.481 3.21602C136.531 3.10502 136.603 3.04902 136.698 3.04902L145.155 3.04102L145.447 5.75101C145.458 5.84601 145.422 5.91802 145.339 5.96802C145.255 6.01302 145.183 6.03502 145.122 6.03502C145.033 6.03502 144.936 6.02101 144.83 5.99301C144.724 5.96001 144.638 5.88202 144.571 5.76002C144.349 5.34302 144.168 4.99502 144.029 4.71702C143.89 4.43402 143.737 4.22202 143.57 4.08302C143.404 3.93902 143.17 3.86601 142.87 3.86601L139.951 3.87502V8.39501L141.961 8.38702C142.105 8.36502 142.239 8.25901 142.361 8.07001C142.483 7.88101 142.583 7.67801 142.661 7.46101C142.745 7.23901 142.792 7.07201 142.803 6.96101C142.814 6.85001 142.859 6.77702 142.937 6.74402C143.014 6.71102 143.098 6.69402 143.187 6.69402C143.248 6.69402 143.323 6.71901 143.412 6.76901C143.501 6.81301 143.545 6.88301 143.545 6.97701V10.672C143.545 10.767 143.501 10.839 143.412 10.889C143.323 10.934 143.248 10.956 143.187 10.956C143.098 10.956 143.009 10.936 142.92 10.898C142.836 10.859 142.789 10.786 142.778 10.681C142.773 10.558 142.728 10.38 142.645 10.147C142.567 9.90802 142.464 9.68801 142.336 9.48801C142.208 9.28801 142.066 9.18802 141.911 9.18802L139.951 9.19601V13.241C139.951 13.547 140.028 13.753 140.184 13.858C140.345 13.964 140.518 14.025 140.701 14.042L143.087 14.034C143.587 14.034 144.018 13.867 144.379 13.533C144.741 13.194 145.041 12.605 145.28 11.765C145.308 11.659 145.386 11.587 145.514 11.548C145.647 11.509 145.758 11.49 145.847 11.49C145.953 11.49 146.048 11.515 146.131 11.565C146.214 11.609 146.262 11.679 146.273 11.773L145.872 14.876L136.773 14.884C136.678 14.884 136.606 14.829 136.556 14.718C136.511 14.606 136.489 14.52 136.489 14.459Z" fill="url(#paint13_linear_209_374)"/>
<path d="M149.716 14.8841C149.621 14.8841 149.549 14.8291 149.499 14.7181C149.454 14.6061 149.432 14.5201 149.432 14.4591C149.432 14.2751 149.524 14.1731 149.707 14.1501C149.969 14.1341 150.23 14.1061 150.491 14.0671C150.758 14.0221 150.978 13.9471 151.15 13.8421C151.328 13.7311 151.417 13.5721 151.417 13.3661L151.425 3.87507H149.307C149.068 3.87507 148.87 3.98607 148.715 4.20807C148.559 4.43107 148.434 4.70007 148.339 5.01707C148.25 5.32907 148.184 5.62907 148.139 5.91807C148.095 6.20707 148.067 6.41907 148.056 6.55207C148.045 6.65807 148.008 6.73007 147.947 6.76907C147.886 6.80807 147.811 6.82707 147.722 6.82707C147.661 6.82707 147.572 6.80507 147.455 6.76107C147.344 6.71107 147.291 6.63807 147.297 6.54407C147.302 6.27107 147.313 5.94007 147.33 5.55107C147.352 5.15607 147.377 4.77007 147.405 4.39207C147.433 4.00807 147.461 3.68807 147.489 3.43307C147.516 3.17707 147.547 3.04907 147.58 3.04907H157.164C157.197 3.04907 157.228 3.17707 157.255 3.43307C157.283 3.68807 157.311 4.00807 157.339 4.39207C157.367 4.77007 157.389 5.15607 157.406 5.55107C157.428 5.94007 157.442 6.27107 157.447 6.54407C157.447 6.63807 157.392 6.71107 157.28 6.76107C157.169 6.80507 157.083 6.82707 157.022 6.82707C156.933 6.82707 156.855 6.80807 156.788 6.76907C156.727 6.73007 156.691 6.65807 156.68 6.55207C156.669 6.41907 156.641 6.20707 156.597 5.91807C156.552 5.62907 156.485 5.32907 156.396 5.01707C156.307 4.70007 156.185 4.43107 156.029 4.20807C155.874 3.98607 155.676 3.87507 155.437 3.87507H153.352L153.344 13.3411C153.344 13.5801 153.435 13.7561 153.619 13.8671C153.808 13.9721 154.033 14.0421 154.295 14.0751C154.561 14.1091 154.806 14.1341 155.028 14.1501C155.145 14.1611 155.223 14.1841 155.262 14.2171C155.307 14.2501 155.329 14.3311 155.329 14.4591C155.329 14.5201 155.304 14.6061 155.254 14.7181C155.209 14.8291 155.14 14.8841 155.045 14.8841H149.716Z" fill="url(#paint14_linear_209_374)"/>
<defs>
<linearGradient id="paint0_linear_209_374" x1="7.29688" y1="2.062" x2="20.7858" y2="3.954" gradientUnits="userSpaceOnUse">
<stop stop-color="#FFBF04"/>
<stop offset="0.5" stop-color="#FFE88A"/>
<stop offset="1" stop-color="#FFBF04"/>
</linearGradient>
<linearGradient id="paint1_linear_209_374" x1="1.4338e-08" y1="2.062" x2="13.9024" y2="4.074" gradientUnits="userSpaceOnUse">
<stop stop-color="#FFBF04"/>
<stop offset="0.5" stop-color="#FFE88A"/>
<stop offset="1" stop-color="#FFBF04"/>
</linearGradient>
<linearGradient id="paint2_linear_209_374" x1="-4.79025e-08" y1="6.88893" x2="13.6073" y2="9.71293" gradientUnits="userSpaceOnUse">
<stop stop-color="#FFBF04"/>
<stop offset="0.5" stop-color="#FFE88A"/>
<stop offset="1" stop-color="#FFBF04"/>
</linearGradient>
<linearGradient id="paint3_linear_209_374" x1="14.2539" y1="2.062" x2="28.1566" y2="4.074" gradientUnits="userSpaceOnUse">
<stop stop-color="#FFBF04"/>
<stop offset="0.5" stop-color="#FFE88A"/>
<stop offset="1" stop-color="#FFBF04"/>
</linearGradient>
<linearGradient id="paint4_linear_209_374" x1="30.5703" y1="4.27107" x2="55.8663" y2="59.5701" gradientUnits="userSpaceOnUse">
<stop stop-color="#FFBF04"/>
<stop offset="0.5" stop-color="#FFE88A"/>
<stop offset="1" stop-color="#FFBF04"/>
</linearGradient>
<linearGradient id="paint5_linear_209_374" x1="30.5725" y1="4.27099" x2="55.8685" y2="59.57" gradientUnits="userSpaceOnUse">
<stop stop-color="#FFBF04"/>
<stop offset="0.5" stop-color="#FFE88A"/>
<stop offset="1" stop-color="#FFBF04"/>
</linearGradient>
<linearGradient id="paint6_linear_209_374" x1="30.5719" y1="4.27107" x2="55.8678" y2="59.57" gradientUnits="userSpaceOnUse">
<stop stop-color="#FFBF04"/>
<stop offset="0.5" stop-color="#FFE88A"/>
<stop offset="1" stop-color="#FFBF04"/>
</linearGradient>
<linearGradient id="paint7_linear_209_374" x1="30.5699" y1="4.27107" x2="55.866" y2="59.5701" gradientUnits="userSpaceOnUse">
<stop stop-color="#FFBF04"/>
<stop offset="0.5" stop-color="#FFE88A"/>
<stop offset="1" stop-color="#FFBF04"/>
</linearGradient>
<linearGradient id="paint8_linear_209_374" x1="30.5712" y1="4.27099" x2="55.8672" y2="59.57" gradientUnits="userSpaceOnUse">
<stop stop-color="#FFBF04"/>
<stop offset="0.5" stop-color="#FFE88A"/>
<stop offset="1" stop-color="#FFBF04"/>
</linearGradient>
<linearGradient id="paint9_linear_209_374" x1="30.5719" y1="4.27095" x2="55.8679" y2="59.57" gradientUnits="userSpaceOnUse">
<stop stop-color="#FFBF04"/>
<stop offset="0.5" stop-color="#FFE88A"/>
<stop offset="1" stop-color="#FFBF04"/>
</linearGradient>
<linearGradient id="paint10_linear_209_374" x1="30.5694" y1="4.27099" x2="55.8654" y2="59.57" gradientUnits="userSpaceOnUse">
<stop stop-color="#FFBF04"/>
<stop offset="0.5" stop-color="#FFE88A"/>
<stop offset="1" stop-color="#FFBF04"/>
</linearGradient>
<linearGradient id="paint11_linear_209_374" x1="30.5699" y1="4.27104" x2="55.8659" y2="59.57" gradientUnits="userSpaceOnUse">
<stop stop-color="#FFBF04"/>
<stop offset="0.5" stop-color="#FFE88A"/>
<stop offset="1" stop-color="#FFBF04"/>
</linearGradient>
<linearGradient id="paint12_linear_209_374" x1="30.5706" y1="4.27107" x2="55.8666" y2="59.5701" gradientUnits="userSpaceOnUse">
<stop stop-color="#FFBF04"/>
<stop offset="0.5" stop-color="#FFE88A"/>
<stop offset="1" stop-color="#FFBF04"/>
</linearGradient>
<linearGradient id="paint13_linear_209_374" x1="30.5711" y1="4.27101" x2="55.8672" y2="59.57" gradientUnits="userSpaceOnUse">
<stop stop-color="#FFBF04"/>
<stop offset="0.5" stop-color="#FFE88A"/>
<stop offset="1" stop-color="#FFBF04"/>
</linearGradient>
<linearGradient id="paint14_linear_209_374" x1="30.5692" y1="4.27107" x2="55.8652" y2="59.5701" gradientUnits="userSpaceOnUse">
<stop stop-color="#FFBF04"/>
<stop offset="0.5" stop-color="#FFE88A"/>
<stop offset="1" stop-color="#FFBF04"/>
</linearGradient>
</defs>
</svg>
